<svg preserveAspectRatio="none" width="100%" height="100%" overflow="visible" style="display: block;" viewBox="0 0 20 20" fill="none" xmlns="http://www.w3.org/2000/svg">
<g id="SVG" clip-path="url(#clip0_0_15)">
<path id="Vector" d="M13.6375 12.335C13.6533 14.85 15.8458 15.6883 15.865 15.695C15.8467 15.7525 15.5208 16.87 14.7375 18.015C14.06 19.0042 13.3492 19.99 12.2492 20.0108C11.1675 20.0308 10.8158 19.3717 9.58667 19.3717C8.35833 19.3717 7.96833 19.9908 6.945 20.0308C5.8825 20.0708 5.06083 18.9642 4.37833 17.9775C2.99333 15.98 1.93083 12.3442 3.35083 9.88583C4.05417 8.66583 5.31333 7.8925 6.6875 7.87167C7.72917 7.85167 8.71083 8.5725 9.35 8.5725C9.98917 8.5725 11.1775 7.7525 12.435 7.87167C13.7517 7.96583 14.8683 8.51 15.55 9.51C12.9475 11.0267 13.3725 14.7617 15.8042 15.6983L13.6375 12.335M12.4783 3.49583C13.0475 2.80667 13.4317 1.8475 13.3267 0.8875C12.4958 0.920833 11.4908 1.44083 10.9017 2.13083C10.4317 2.67583 9.9675 3.6625 10.0925 4.6025C11.0175 4.67417 11.9092 4.14167 12.4783 3.49583V3.49583" fill="var(--fill-0, #2C3149)"/>
</g>
<defs>
<clipPath id="clip0_0_15">
<rect width="20" height="20" fill="white"/>
</clipPath>
</defs>
</svg>
