<svg preserveAspectRatio="none" width="100%" height="100%" overflow="visible" style="display: block;" viewBox="0 0 133.678 80.1697" fill="none" xmlns="http://www.w3.org/2000/svg">
<g id="Group 3">
<g id="Vector 574">
<path d="M76.9939 54.5085C75.3241 49.9054 74.3789 47.1132 73.2198 42.8142C72.6784 43.3559 72.1104 43.9021 71.4839 44.4861L73.6704 54.5085L76.44 67.5006C77.5626 72.8814 78.2803 75.681 80.6866 80.1214H93.6113C88.6792 75.8072 85.8624 73.0702 82.9023 67.5006C80.617 63.2949 79.2624 60.623 77.7988 56.7357C77.536 56.0378 77.2697 55.3007 76.9939 54.5085Z" fill="var(--fill-0, #615FE2)"/>
<path d="M72.7472 41.0246C72.2366 41.5326 71.6852 42.0628 71.079 42.6301L71.4839 44.4861C72.1104 43.9021 72.6784 43.3559 73.2198 42.8142C73.0667 42.2465 72.9099 41.6525 72.7472 41.0246Z" fill="var(--fill-0, #615FE2)"/>
<path d="M76.9939 54.5085C77.2697 55.3007 77.536 56.0378 77.7988 56.7357C78.2187 52.3629 79.5128 51.535 83.2716 52.2813C88.3117 53.6898 94.2721 58.3305 106.536 68.6142L122.045 80.1214C126.121 80.373 128.1 79.6867 131.093 76.9662C132.794 74.9856 133.243 73.7336 133.678 71.3982V58.5917C128.857 61.5182 125.917 62.1686 120.384 62.1181C112.708 61.773 107.766 60.0272 98.0426 54.6941C93.3289 51.7571 90.6999 51.0055 86.0411 50.0541C80.6575 49.2943 78.1268 49.8827 76.9939 54.5085Z" fill="var(--fill-0, #615FE2)"/>
<path d="M71.4839 44.4861L71.079 42.6301C63.0343 48.5619 58.2075 50.3697 49.2983 52.1538C36.465 53.948 29.5312 53.8721 17.9099 50.669C8.78626 47.3384 5.31353 43.6788 0 36.1922V60.5059C6.01684 65.0266 10.4262 65.9975 19.7562 65.5171C33.7824 64.1341 40.717 62.3331 51.3293 57.165C59.6164 52.9663 64.1365 50.384 71.4839 44.4861Z" fill="var(--fill-0, #615FE2)"/>
<path d="M72.7472 41.0246C71.5958 36.8419 71.2212 34.5112 70.7162 30.566C69.5112 22.2908 69.8177 17.3186 76.2553 12.7483C80.1117 11.0864 81.7381 11.1941 83.4562 13.6763C86.5895 18.9539 84.5036 23.8227 79.0249 33.35C77.0224 36.2278 75.5835 38.11 73.4671 40.2954C73.2358 40.5343 72.9964 40.7768 72.7472 41.0246C72.9099 41.6525 73.0667 42.2465 73.2198 42.8142C74.9058 41.127 76.3337 39.4831 78.471 36.8764C92.3603 18.6096 92.3221 12.0426 87.149 2.72589C87.149 2.72589 85.8565 0.684274 83.0869 0.12748C80.3174 -0.429314 78.0043 0.91094 76.0706 2.72589C67.7048 12.3395 65.7644 18.8761 69.0544 33.35L71.079 42.6301C71.6852 42.0628 72.2366 41.5326 72.7472 41.0246Z" fill="var(--fill-0, #615FE2)"/>
</g>
<g id="Mask group">
<mask id="mask0_0_17" style="mask-type:alpha" maskUnits="userSpaceOnUse" x="0" y="0" width="134" height="81">
<g id="Vector 575">
<path d="M76.9939 54.5085C75.3241 49.9054 74.3789 47.1132 73.2198 42.8142C72.6784 43.3559 72.1104 43.9021 71.4839 44.4861L73.6704 54.5085L76.44 67.5006C77.5626 72.8814 78.2803 75.681 80.6866 80.1214H93.6113C88.6792 75.8072 85.8624 73.0702 82.9023 67.5006C80.617 63.2949 79.2624 60.623 77.7988 56.7357C77.536 56.0378 77.2697 55.3007 76.9939 54.5085Z" fill="var(--fill-0, #615FE2)"/>
<path d="M72.7472 41.0246C72.2366 41.5326 71.6852 42.0628 71.079 42.6301L71.4839 44.4861C72.1104 43.9021 72.6784 43.3559 73.2198 42.8142C73.0667 42.2465 72.9099 41.6525 72.7472 41.0246Z" fill="var(--fill-0, #615FE2)"/>
<path d="M76.9939 54.5085C77.2697 55.3007 77.536 56.0378 77.7988 56.7357C78.2187 52.3629 79.5128 51.535 83.2716 52.2813C88.3117 53.6897 94.2721 58.3305 106.536 68.6142L122.045 80.1214C126.121 80.373 128.1 79.6867 131.093 76.9662C132.794 74.9856 133.243 73.7336 133.678 71.3982V58.5917C128.857 61.5182 125.917 62.1686 120.384 62.1181C112.708 61.7729 107.766 60.0271 98.0426 54.6941C93.3289 51.7571 90.6999 51.0055 86.0411 50.0541C80.6575 49.2943 78.1268 49.8827 76.9939 54.5085Z" fill="var(--fill-0, #615FE2)"/>
<path d="M71.4839 44.4861L71.079 42.6301C63.0343 48.5619 58.2075 50.3697 49.2983 52.1538C36.465 53.948 29.5312 53.8721 17.9099 50.669C8.78627 47.3384 5.31353 43.6788 0 36.1921V60.5059C6.01684 65.0266 10.4262 65.9975 19.7562 65.5171C33.7824 64.1341 40.717 62.3331 51.3293 57.165C59.6163 52.9663 64.1365 50.384 71.4839 44.4861Z" fill="var(--fill-0, #615FE2)"/>
<path d="M72.7472 41.0246C71.5957 36.8419 71.2212 34.5112 70.7162 30.566C69.5112 22.2908 69.8177 17.3186 76.2553 12.7483C80.1117 11.0864 81.7381 11.194 83.4562 13.6763C86.5895 18.9539 84.5036 23.8227 79.0249 33.35C77.0224 36.2278 75.5835 38.11 73.4671 40.2954C73.2358 40.5343 72.9964 40.7768 72.7472 41.0246C72.9099 41.6525 73.0667 42.2465 73.2198 42.8142C74.9058 41.127 76.3337 39.4831 78.471 36.8764C92.3603 18.6096 92.3221 12.0426 87.149 2.72589C87.149 2.72589 85.8565 0.684274 83.0869 0.12748C80.3174 -0.429314 78.0043 0.91094 76.0706 2.72589C67.7048 12.3395 65.7644 18.8761 69.0544 33.35L71.079 42.6301C71.6852 42.0628 72.2366 41.5326 72.7472 41.0246Z" fill="var(--fill-0, #615FE2)"/>
</g>
</mask>
<g mask="url(#mask0_0_17)">
<rect id="Rectangle 6" x="-32.124" y="18.8634" width="101.554" height="61.3062" fill="url(#paint0_linear_0_17)"/>
<rect id="Rectangle 7" x="72.1045" y="40.3893" width="107.78" height="64.1629" fill="url(#paint1_linear_0_17)"/>
<rect id="Rectangle 5" x="64.8402" y="-21.4287" width="55.0699" height="59.375" fill="url(#paint2_linear_0_17)" fill-opacity="0.75"/>
</g>
</g>
</g>
<defs>
<linearGradient id="paint0_linear_0_17" x1="118.887" y1="53.0534" x2="-40.6967" y2="53.0534" gradientUnits="userSpaceOnUse">
<stop offset="0.240385" stop-color="#615FE2" stop-opacity="0.52"/>
<stop offset="0.602697" stop-color="#FBF8FF"/>
</linearGradient>
<linearGradient id="paint1_linear_0_17" x1="232.375" y1="76.1724" x2="63.0062" y2="76.1724" gradientUnits="userSpaceOnUse">
<stop offset="0.649865" stop-color="#FBF8FF"/>
<stop offset="0.941702" stop-color="#615FE2" stop-opacity="0.52"/>
</linearGradient>
<linearGradient id="paint2_linear_0_17" x1="112.043" y1="-23.7725" x2="65.5473" y2="26.5862" gradientUnits="userSpaceOnUse">
<stop stop-color="#FBF8FF"/>
<stop offset="0.870192" stop-color="#615FE2"/>
</linearGradient>
</defs>
</svg>
