<svg preserveAspectRatio="xMidYMid meet" width="1070" height="782" overflow="visible" style="display: block;" viewBox="0 0 1070 782" fill="none" xmlns="http://www.w3.org/2000/svg">
<path id="logo allungato" fill-rule="evenodd" clip-rule="evenodd" d="M0 353.432C16.2606 389.751 22.6386 400.2 44.1038 424.254C44.1038 424.254 66.2773 444.23 97.3203 466.021C128.363 487.813 135.754 491.445 168.276 502.341C200.797 513.237 214.101 516.869 242.187 518.685C242.187 518.685 274.709 522.317 319.056 520.501C363.403 518.685 391.57 511.505 434.358 496.893C477.147 482.281 486.787 478.518 512.705 464.206C538.623 449.894 551.433 439.064 570.356 413.359L552.617 315.296C544.829 260.066 544.746 228.54 548.182 171.835C558.626 113.023 570.609 81.032 608.79 26.5578C648.702 -17.0253 694.528 -7.94555 712.267 61.0611C724.093 131.884 722.304 167.568 691.571 240.842C658.289 314.088 635.656 353.039 588.095 418.806C596.321 464.807 604.365 490.462 617.659 531.397C621.01 514.448 623.081 506.438 638.355 495.077C656.776 487.53 666.562 483.953 688.615 485.997C718.18 493.261 737.626 503.984 765.483 520.501C810.559 552.461 836.821 567.441 885.22 589.507C920.044 604.969 939.812 608 975.393 605.851C1013.32 605.391 1036.43 598.704 1070 573.164V698.465C1067.32 718.294 1063.69 729.074 1052.26 747.497C1036.86 768.335 1025.76 776.234 1000.52 782H978.349C978.349 782 906.728 726.135 866.003 682.122L780.266 596.771C742.821 560.724 725.026 543.021 682.702 516.869C666.666 508.77 648.702 500.525 636.877 509.605C625.051 524.133 623.012 531.259 623.572 551.372C640.903 612.179 654.341 640.927 682.702 696.649C701.92 733.414 719.391 753.982 749.223 782H697.484H645.746C628.816 733.859 619.799 703.643 608.79 651.25L573.312 431.518C541.949 464.411 520.765 483.112 483.14 511.421C439.146 541.823 413.052 557.087 363.403 580.428C315.842 603.949 286.697 612.704 233.318 625.827C178.823 640.366 149.775 642.832 100.277 638.539C55.3875 631.784 36.8815 620.228 0 589.508V471.47V353.432ZM564.443 240.842C562.483 302.984 566.189 337.602 583.66 398.831C618.789 353.161 635.41 324.904 657.572 268.081C676.319 226.074 679.745 204.523 676.789 159.123C666.441 117.356 654.233 103.447 608.79 124.62C581.327 143.924 570.284 165.941 564.443 240.842Z" fill="#b0b3f0" fill-opacity="0.28"/>
</svg>
